G75*
%MOIN*%
%OFA0B0*%
%FSLAX25Y25*%
%IPPOS*%
%LPD*%
%AMOC8*
5,1,8,0,0,1.08239X$1,22.5*
%
%ADD10C,0.00600*%
%ADD11C,0.00500*%
D10*
X0095871Y0169375D02*
X0095304Y0169942D01*
X0095871Y0169375D02*
X0097005Y0169375D01*
X0097573Y0169942D01*
X0097573Y0170509D01*
X0097005Y0171076D01*
X0095871Y0171076D01*
X0095304Y0171643D01*
X0095304Y0172211D01*
X0095871Y0172778D01*
X0097005Y0172778D01*
X0097573Y0172211D01*
X0098987Y0172778D02*
X0098987Y0169375D01*
X0100689Y0169375D01*
X0101256Y0169942D01*
X0101256Y0172211D01*
X0100689Y0172778D01*
X0098987Y0172778D01*
X0102670Y0171643D02*
X0102670Y0169375D01*
X0102670Y0171076D02*
X0104939Y0171076D01*
X0104939Y0171643D02*
X0104939Y0169375D01*
X0104939Y0171643D02*
X0103805Y0172778D01*
X0102670Y0171643D01*
X0106353Y0172778D02*
X0108622Y0172778D01*
X0107488Y0172778D02*
X0107488Y0169375D01*
X0107008Y0179627D02*
X0107008Y0183030D01*
X0107575Y0181328D02*
X0109276Y0179627D01*
X0107008Y0180761D02*
X0109276Y0183030D01*
X0105593Y0179627D02*
X0103325Y0179627D01*
X0103325Y0183030D01*
X0101910Y0182463D02*
X0101343Y0183030D01*
X0100209Y0183030D01*
X0099641Y0182463D01*
X0099641Y0180194D01*
X0100209Y0179627D01*
X0101343Y0179627D01*
X0101910Y0180194D01*
X0098227Y0180194D02*
X0097660Y0179627D01*
X0096525Y0179627D01*
X0095958Y0180194D01*
X0096525Y0181328D02*
X0095958Y0181895D01*
X0095958Y0182463D01*
X0096525Y0183030D01*
X0097660Y0183030D01*
X0098227Y0182463D01*
X0097660Y0181328D02*
X0098227Y0180761D01*
X0098227Y0180194D01*
X0097660Y0181328D02*
X0096525Y0181328D01*
X0097127Y0189779D02*
X0094858Y0193182D01*
X0097127Y0193182D02*
X0094858Y0189779D01*
X0098541Y0189779D02*
X0098541Y0193182D01*
X0100243Y0193182D01*
X0100810Y0192614D01*
X0100810Y0191480D01*
X0100243Y0190913D01*
X0098541Y0190913D01*
X0099676Y0190913D02*
X0100810Y0189779D01*
X0102225Y0189779D02*
X0102225Y0193182D01*
X0104493Y0193182D01*
X0105908Y0192614D02*
X0105908Y0192047D01*
X0106475Y0191480D01*
X0107609Y0191480D01*
X0108176Y0190913D01*
X0108176Y0190346D01*
X0107609Y0189779D01*
X0106475Y0189779D01*
X0105908Y0190346D01*
X0104493Y0189779D02*
X0102225Y0189779D01*
X0102225Y0191480D02*
X0103359Y0191480D01*
X0105908Y0192614D02*
X0106475Y0193182D01*
X0107609Y0193182D01*
X0108176Y0192614D01*
X0104435Y0199400D02*
X0105002Y0199967D01*
X0105002Y0202236D01*
X0104435Y0202803D01*
X0102733Y0202803D01*
X0102733Y0199400D01*
X0104435Y0199400D01*
X0101319Y0199400D02*
X0101319Y0202803D01*
X0099050Y0202803D02*
X0099050Y0199400D01*
X0097636Y0199967D02*
X0097636Y0201101D01*
X0096501Y0201101D01*
X0095367Y0199967D02*
X0095934Y0199400D01*
X0097068Y0199400D01*
X0097636Y0199967D01*
X0097636Y0202236D02*
X0097068Y0202803D01*
X0095934Y0202803D01*
X0095367Y0202236D01*
X0095367Y0199967D01*
X0099050Y0202803D02*
X0101319Y0199400D01*
X0101636Y0208821D02*
X0102771Y0209956D01*
X0103905Y0208821D01*
X0103905Y0212224D01*
X0105320Y0212224D02*
X0107021Y0212224D01*
X0107588Y0211657D01*
X0107588Y0210523D01*
X0107021Y0209956D01*
X0105320Y0209956D01*
X0106454Y0209956D02*
X0107588Y0208821D01*
X0105320Y0208821D02*
X0105320Y0212224D01*
X0101636Y0212224D02*
X0101636Y0208821D01*
X0100222Y0210523D02*
X0099655Y0209956D01*
X0097953Y0209956D01*
X0097953Y0208821D02*
X0097953Y0212224D01*
X0099655Y0212224D01*
X0100222Y0211657D01*
X0100222Y0210523D01*
X0096539Y0209956D02*
X0096539Y0212224D01*
X0096539Y0209956D02*
X0095404Y0208821D01*
X0094270Y0209956D01*
X0094270Y0212224D01*
D11*
X0063590Y0208637D02*
X0063590Y0205934D01*
X0063590Y0206835D02*
X0062238Y0206835D01*
X0061788Y0207285D01*
X0061788Y0208186D01*
X0062238Y0208637D01*
X0063590Y0208637D01*
X0062689Y0206835D02*
X0061788Y0205934D01*
X0060643Y0205934D02*
X0058841Y0207736D01*
X0058841Y0208186D01*
X0059292Y0208637D01*
X0060193Y0208637D01*
X0060643Y0208186D01*
X0060643Y0205934D02*
X0058841Y0205934D01*
X0057697Y0205934D02*
X0055895Y0205934D01*
X0056796Y0205934D02*
X0056796Y0208637D01*
X0057697Y0207736D01*
X0057546Y0203537D02*
X0057997Y0203086D01*
X0057997Y0202636D01*
X0057546Y0202185D01*
X0056195Y0202185D01*
X0056195Y0201285D02*
X0056195Y0203086D01*
X0056645Y0203537D01*
X0057546Y0203537D01*
X0057997Y0201285D02*
X0057546Y0200834D01*
X0056645Y0200834D01*
X0056195Y0201285D01*
X0059141Y0200834D02*
X0060943Y0200834D01*
X0060042Y0200834D02*
X0060042Y0203537D01*
X0060943Y0202636D01*
X0062088Y0203086D02*
X0062538Y0203537D01*
X0063890Y0203537D01*
X0063890Y0200834D01*
X0063890Y0201735D02*
X0062538Y0201735D01*
X0062088Y0202185D01*
X0062088Y0203086D01*
X0062989Y0201735D02*
X0062088Y0200834D01*
M02*
