%
M48
M72
T01C0.0130
T02C0.0140
T03C0.0177
T04C0.0315
T05C0.0320
T06C0.0400
T07C0.1134
%
T01
X4374Y6675
X5144Y6505
X5570Y8228
X5630Y8888
X5630Y9788
X4850Y9068
X3728Y10009
X3554Y10935
X3663Y11748
X2903Y11528
X2883Y12108
X2353Y10958
X1903Y11368
X3170Y13748
X3525Y14337
X3945Y14206
X4789Y14635
X6151Y16023
X6230Y16988
X7004Y17535
X7444Y18075
X7934Y18605
X6474Y18985
X5774Y18575
X4782Y17481
X4430Y17768
X3567Y19999
X5150Y22808
X3818Y23239
X3170Y23468
X4370Y24728
X4670Y25028
X5289Y27476
X6288Y27577
X7609Y26056
X8359Y25996
X8279Y25156
X9109Y25046
X9429Y24226
X8329Y22884
X7478Y22867
X6350Y20768
X6350Y20288
X9779Y19556
X9779Y18926
X10490Y18668
X11090Y18368
X11699Y18116
X11429Y17666
X11930Y16448
X12290Y16448
X12470Y15968
X12830Y16328
X12590Y14768
X12590Y14288
X11390Y15548
X11150Y15248
X10970Y15548
X10850Y14408
X10313Y14044
X10070Y14421
X9650Y14888
X9650Y15488
X8690Y15488
X8562Y14387
X9064Y14270
X7884Y14245
X8910Y12411
X8260Y12109
X7766Y11807
X7376Y11807
X7550Y11108
X7190Y11108
X6678Y10727
X5927Y10978
X5623Y11717
X4910Y11408
X4697Y11963
X5150Y12488
X6839Y12401
X8030Y10628
X8390Y10268
X8797Y10809
X9170Y9848
X9410Y9608
X9770Y9968
X10070Y9668
X10310Y9428
X10550Y9668
X10550Y10028
X10790Y11228
X10730Y11828
X10190Y12008
X10610Y12428
X11150Y12248
X11810Y12248
X12170Y12128
X12426Y11497
X12656Y10817
X12170Y10268
X11834Y10535
X11604Y10765
X11990Y9848
X12470Y9368
X12170Y9128
X11786Y8447
X12146Y8227
X11436Y7847
X10986Y8257
X10070Y8768
X9770Y8528
X8930Y9368
X7790Y8288
X7310Y8288
X7790Y7208
X7730Y6848
X9534Y6765
X9504Y7215
X11188Y7202
X11684Y6545
X12884Y7065
X13384Y7555
X13534Y6445
X14474Y6485
X15184Y6835
X15590Y7388
X15414Y7845
X16066Y6687
X14204Y8485
X13754Y9235
X14164Y9435
X14510Y9788
X14510Y10868
X13610Y10388
X13370Y10028
X13010Y10028
X12650Y10028
X13216Y11907
X13306Y12267
X14270Y12728
X14510Y12248
X15110Y13208
X15296Y12437
X15366Y10987
X16006Y11157
X14090Y15848
X12890Y18428
X12770Y19028
X12170Y19868
X10610Y21068
X11507Y22084
X11003Y22519
X10587Y22815
X9770Y22268
X12069Y24096
X12619Y24546
X13190Y24728
X13490Y25328
X14090Y24728
X15299Y25366
X14149Y26346
X13399Y26856
X12590Y25328
X11045Y26115
X10370Y27908
X9545Y26115
X7938Y26911
X13089Y22506
X13309Y22986
X14319Y22986
X14319Y22326
X15189Y22996
X14390Y21008
X13610Y20228
X13790Y19028
X15169Y19616
X15419Y19176
X20293Y18512
X20185Y22565
X15735Y28615
X15035Y27765
X14775Y28355
X10250Y13568
X10250Y12968
X3234Y7405
X2324Y7445
X19806Y6357
X20746Y7057
X20643Y11156
X20224Y12125
T02
X16639Y14713
X18239Y19019
X18239Y24924
X16639Y8807
T03
X4668Y9831
X2660Y9831
T04
X3719Y15737
X3719Y16737
X3719Y17737
X3719Y18737
T05
X5444Y25067
X6444Y26067
X4444Y26067
X12027Y7323
X14027Y7323
T06
X14447Y16904
X14447Y17904
X14447Y18904
X9029Y18059
X8929Y17059
X8929Y19059
X9029Y20059
X8929Y21059
X2298Y20752
X2298Y21752
X2298Y22752
X2298Y23752
X2298Y24752
X2298Y25752
X2298Y26752
X2298Y27752
X2298Y19252
X2298Y18252
X2298Y17252
X2298Y16252
X2298Y15252
X2298Y14252
X2298Y13252
X2298Y12252
X21298Y15752
X21298Y16752
X21298Y17752
X21298Y18752
X21298Y19752
X21298Y20752
X21298Y22752
X21298Y23752
X21298Y24752
X21298Y25752
X21298Y26752
X21298Y27752
T07
X12991Y21327
X12991Y13178
X3857Y13178
X3857Y21327
M30
